<svg xmlns="http://www.w3.org/2000/svg" width="38.992" height="41.591" viewBox="0 0 38.992 41.591"><g transform="translate(0 0)"><g fill="none" stroke="#fff" stroke-width="2"><rect width="38.992" height="41.591" stroke="none"/><rect x="1" y="1" width="36.992" height="39.591" fill="none"/></g><g transform="translate(7.188 8.811)"><path d="M3.033.012H20.587a3.04,3.04,0,0,1,3.031,3.032V20.6a3.039,3.039,0,0,1-3.031,3.03H3.033A3.04,3.04,0,0,1,0,20.6V3.044A3.041,3.041,0,0,1,3.033.012ZM17.205,2.635A1.067,1.067,0,0,0,16.142,3.7V6.244a1.066,1.066,0,0,0,1.063,1.064h2.669a1.067,1.067,0,0,0,1.063-1.064V3.7a1.067,1.067,0,0,0-1.063-1.065H17.205ZM20.948,10H18.87a6.905,6.905,0,0,1,.3,2.028,7.231,7.231,0,0,1-7.342,7.112A7.231,7.231,0,0,1,4.49,12.027,6.937,6.937,0,0,1,4.794,10H2.625v9.977a.939.939,0,0,0,.938.937H20.01a.939.939,0,0,0,.938-.937ZM11.831,7.173a4.671,4.671,0,0,0-4.742,4.6,4.672,4.672,0,0,0,4.742,4.6,4.672,4.672,0,0,0,4.744-4.6A4.671,4.671,0,0,0,11.831,7.173Z" transform="translate(0 -0.012)" fill="#fff"/></g></g></svg>