<svg xmlns="http://www.w3.org/2000/svg" width="256.316" height="140.97" viewBox="0 0 256.316 140.97"><g transform="translate(-348.425 1423.691)" opacity="0.998"><path d="M416.162-1423.619c-13.341.554-24.65,4.084-34.739,10.828-12.38,8.278-20.234,17.536-25.482,29.99a121.064,121.064,0,0,0-5.562,18,11.141,11.141,0,0,1-.388,1.571,65.722,65.722,0,0,0-1.22,7.206,127.008,127.008,0,0,0,0,18.755c1.9,16.945,7.428,29.713,17.85,41.17a71.5,71.5,0,0,0,15.781,12.787l1.053.592v-32.873c0-32.744.074-36.568.647-39.784a57,57,0,0,1,4.195-12.565c4.62-9.83,13.859-16.52,25.186-18.182a34.478,34.478,0,0,1,27.348,7.188,40.154,40.154,0,0,1,11.142,14.358l.684,1.626,23.837-.019h23.837l1.22-2.531a37.313,37.313,0,0,1,7.853-10.939,34.2,34.2,0,0,1,27.016-10.016c13.489,1.035,23.671,7.946,28.808,19.532a75.378,75.378,0,0,1,3.1,8.8c1.146,4.508,1.072,1.958,1.146,40.3.037,19.291.092,35.072.148,35.072a49.46,49.46,0,0,0,4.583-2.809,66.425,66.425,0,0,0,10.126-8.444,64.77,64.77,0,0,0,15.374-23.486c4.767-12.455,6.264-28.327,3.991-42.5-.2-1.275-.5-2.735-.628-3.233-.148-.518-.481-1.959-.739-3.215-.277-1.257-.85-3.419-1.275-4.8-.443-1.386-1.2-3.77-1.681-5.285-4.878-15.466-13.508-26.757-27.718-36.255-9.091-6.061-19.051-9.479-30.951-10.606a110.267,110.267,0,0,0-13.766,0,60.421,60.421,0,0,0-26.775,8.962c-1.035.647-3.271,2-5.008,3.03-1.792,1.053-6.449,4.213-10.9,7.373l-7.742,5.525-6.855-4.878c-8.463-6.061-9.258-6.6-13.138-8.87-1.719-1.016-3.917-2.31-4.878-2.9a72.574,72.574,0,0,0-9.424-4.583A66.207,66.207,0,0,0,416.162-1423.619Z" transform="translate(0 0)" fill="#fff"/><path d="M917-1059.815c0,.24,22.655,72.731,22.895,73.267.129.3.185.314.277.093.056-.148,5.229-16.668,11.475-36.68,6.264-20.03,11.42-36.513,11.457-36.643.055-.166-4.62-.222-23.006-.222C924.41-1060,917-1059.945,917-1059.815Z" transform="translate(-463.512 -296.487)" fill="#fff"/></g></svg>