<svg xmlns="http://www.w3.org/2000/svg" width="41.591" height="41.591" viewBox="0 0 41.591 41.591"><g transform="translate(0 0)"><g transform="translate(0 0)"><g fill="none" stroke="#fff" stroke-width="2"><rect width="41.591" height="41.591" stroke="none"/><rect x="1" y="1" width="39.591" height="39.591" fill="none"/></g><g transform="translate(7.867 12.983)"><path d="M21.5,11.906a4.391,4.391,0,0,0-.9.094,7.783,7.783,0,0,0-7.733-7A.864.864,0,0,0,12,5.863V19.676a.864.864,0,0,0,.863.863H21.5a4.317,4.317,0,1,0,0-8.633Z" transform="translate(1.813 -5)" fill="#fff"/><path d="M9,7.363V19.45a.863.863,0,1,0,1.727,0V7.363A.863.863,0,1,0,9,7.363Z" transform="translate(1.36 -4.773)" fill="#fff"/><path d="M6,10.363V19a.863.863,0,1,0,1.727,0V10.363a.863.863,0,1,0-1.727,0Z" transform="translate(0.906 -4.32)" fill="#fff"/><path d="M3,19a.863.863,0,1,0,1.727,0V10.363a.863.863,0,1,0-1.727,0Z" transform="translate(0.453 -4.32)" fill="#fff"/><path d="M.863,19.406a.864.864,0,0,0,.863-.863v-5.18a.863.863,0,1,0-1.727,0v5.18A.864.864,0,0,0,.863,19.406Z" transform="translate(0 -3.867)" fill="#fff"/></g></g></g></svg>