<svg xmlns="http://www.w3.org/2000/svg" width="41.591" height="41.591" viewBox="0 0 41.591 41.591"><g transform="translate(0 0)"><g fill="none" stroke="#fff" stroke-width="2"><rect width="41.591" height="41.591" stroke="none"/><rect x="1" y="1" width="39.591" height="39.591" fill="none"/></g><path d="M21.771,3.735A12.753,12.753,0,0,0,3.735,21.771,12.753,12.753,0,0,0,21.771,3.735ZM18.646,18.008a.747.747,0,0,1-.989.373,17.522,17.522,0,0,0-7.266-1.559,17.759,17.759,0,0,0-3.993.453.747.747,0,0,1-.336-1.456,19.264,19.264,0,0,1,4.329-.491,19.008,19.008,0,0,1,7.881,1.692A.747.747,0,0,1,18.646,18.008Zm1.577-3.577a.747.747,0,0,1-.988.375,21.4,21.4,0,0,0-8.844-1.891,21.7,21.7,0,0,0-4.675.508.747.747,0,0,1-.322-1.459,23.2,23.2,0,0,1,5-.543,22.886,22.886,0,0,1,9.457,2.022A.747.747,0,0,1,20.224,14.432Zm1.527-3.465a.747.747,0,0,1-.988.376A25.158,25.158,0,0,0,10.392,9.131a25.543,25.543,0,0,0-5.333.561.747.747,0,1,1-.313-1.461,27.038,27.038,0,0,1,5.645-.595A26.643,26.643,0,0,1,21.375,9.979.747.747,0,0,1,21.751,10.967Zm0,0" transform="translate(7.609 9.107)" fill="#fff"/></g></svg>